{
  "accessors": [
    {
      "bufferView": 2,
      "componentType": 5126,
      "count": 8309,
      "max": [
        10.569684982299805,
        9.4249486923217773,
        9.0093488693237305
      ],
      "min": [
        -4.6245646476745605,
        8.6249475479125977,
        1.5446946620941162
      ],
      "type": "VEC3"
    },
    {
      "bufferView": 2,
      "byteOffset": 99708,
      "componentType": 5126,
      "count": 8309,
      "max": [
        0.99990159273147583,
        1,
        0.99989449977874756
      ],
      "min": [
        -0.9997866153717041,
        -1,
        -0.99968981742858887
      ],
      "type": "VEC3"
    },
    {
      "bufferView": 3,
      "componentType": 5126,
      "count": 8309,
      "max": [
        1,
        0.88935345411300659,
        0.99999994039535522,
        1
      ],
      "min": [
        -1,
        -0.99239850044250488,
        -0.99999994039535522,
        -1
      ],
      "type": "VEC4"
    },
    {
      "bufferView": 3,
      "byteOffset": 132944,
      "componentType": 5126,
      "count": 8309,
      "max": [
        1,
        1,
        1,
        1
      ],
      "min": [
        1,
        1,
        1,
        1
      ],
      "type": "VEC4"
    },
    {
      "bufferView": 1,
      "componentType": 5126,
      "count": 8309,
      "max": [
        0.95671612024307251,
        0.92754465341567993
      ],
      "min": [
        0.014993106946349144,
        0.021552976220846176
      ],
      "type": "VEC2"
    },
    {
      "bufferView": 0,
      "componentType": 5125,
      "count": 37056,
      "max": [
        8308
      ],
      "min": [
        0
      ],
      "type": "SCALAR"
    }
  ],
  "asset": {
    "extras": {
      "author": "cevica (https://sketchfab.com/cevica)",
      "license": "CC-BY-ND-4.0 (http://creativecommons.org/licenses/by-nd/4.0/)",
      "source": "https://sketchfab.com/models/1e89334923a6408ebdcfd53813487653",
      "title": "Antic Mate White"
    },
    "generator": "Sketchfab-3.19.4",
    "version": "2.0"
  },
  "bufferViews": [
    {
      "buffer": 0,
      "byteLength": 148224,
      "byteOffset": 0,
      "name": "floatBufferViews",
      "target": 34963
    },
    {
      "buffer": 0,
      "byteLength": 66472,
      "byteOffset": 148224,
      "byteStride": 8,
      "name": "floatBufferViews",
      "target": 34962
    },
    {
      "buffer": 0,
      "byteLength": 199416,
      "byteOffset": 214696,
      "byteStride": 12,
      "name": "floatBufferViews",
      "target": 34962
    },
    {
      "buffer": 0,
      "byteLength": 265888,
      "byteOffset": 414112,
      "byteStride": 16,
      "name": "floatBufferViews",
      "target": 34962
    }
  ],
  "buffers": [
    {
      "byteLength": 680000,
      "uri": "scene.bin"
    }
  ],
  "extensionsRequired": [
    "KHR_materials_pbrSpecularGlossiness"
  ],
  "extensionsUsed": [
    "KHR_materials_pbrSpecularGlossiness"
  ],
  "images": [
    {
      "uri": "textures/Material_56_diffuse.png"
    },
    {
      "uri": "textures/Material_56_specularGlossiness.png"
    }
  ],
  "materials": [
    {
      "doubleSided": true,
      "extensions": {
        "KHR_materials_pbrSpecularGlossiness": {
          "diffuseFactor": [
            1,
            1,
            1,
            1
          ],
          "diffuseTexture": {
            "index": 0,
            "texCoord": 0
          },
          "glossinessFactor": 0.55000000000000004,
          "specularFactor": [
            0.16,
            0.16,
            0.16
          ],
          "specularGlossinessTexture": {
            "index": 1,
            "texCoord": 0
          }
        }
      },
      "name": "Material_56"
    }
  ],
  "meshes": [
    {
      "primitives": [
        {
          "attributes": {
            "COLOR_0": 3,
            "NORMAL": 1,
            "POSITION": 0,
            "TANGENT": 2,
            "TEXCOORD_0": 4
          },
          "indices": 5,
          "material": 0,
          "mode": 4
        }
      ]
    }
  ],
  "nodes": [
    {
      "children": [
        1
      ],
      "name": "RootNode (gltf orientation matrix)",
      "rotation": [
        -0.70710678118654746,
        -0,
        -0,
        0.70710678118654757
      ]
    },
    {
      "children": [
        2
      ],
      "name": "RootNode (model correction matrix)"
    },
    {
      "children": [
        3
      ],
      "matrix": [
        1,
        0,
        0,
        0,
        0,
        -1.1920928955078125e-07,
        0.99999994039535522,
        0,
        0,
        -0.99999994039535522,
        -1.1920928955078125e-07,
        0,
        3.6758313179016113,
        9.4249486923217773,
        5.0924205780029297,
        1
      ],
      "name": "Line001"
    },
    {
      "children": [
        4
      ],
      "matrix": [
        1,
        0,
        0,
        0,
        0,
        -1.629206849429422e-07,
        -0.99999999999997335,
        0,
        0,
        0.99999999999997335,
        -1.629206849429422e-07,
        0,
        -3.6758313179016113,
        -5.092419042483697,
        9.4249495219821746,
        1
      ],
      "name": "3DSMeshMatrix"
    },
    {
      "mesh": 0,
      "name": ""
    }
  ],
  "samplers": [
    {
      "magFilter": 9729,
      "minFilter": 9987,
      "wrapS": 10497,
      "wrapT": 10497
    }
  ],
  "scene": 0,
  "scenes": [
    {
      "name": "OSG_Scene",
      "nodes": [
        0
      ]
    }
  ],
  "textures": [
    {
      "sampler": 0,
      "source": 0
    },
    {
      "sampler": 0,
      "source": 1
    }
  ]
}

